<svg width="100" height="52" xmlns="http://www.w3.org/2000/svg"><g fill="none" fill-rule="evenodd"><path d="M89.101 42.17c0 2.059.067 5.574-2.769 8.291-.37.356-.282 1.261-.282 1.261 9.356 1.208 15.217-6.165 13.347-15.218-.1-.484-.272-.756-1.266-1.062-1.435-.444-6.106-.487-9.032-.35l.002 7.078" fill="#FFED00"/><path d="M63.774 3.023C65.42 1.778 67.657.598 70.29.598h1.229v8.785h10.684v4.393c0 3.081-3.291 5.441-6.12 5.441h-4.564v13.047c0 1.456.538 2.568 1.508 3.206 1.84 1.209 6.065.95 8.189-.124h.329v4.419c0 3.016-3.655 6.082-9.432 6.082-4.959 0-9.84-2.529-11.915-8.365-.527-1.482-.766-4.953-.766-6.918V10.76c0-3.278 1.908-5.901 4.343-7.737M38.159 46.221c-9.875 0-13.517-3.85-13.517-9.096v-1.843h.4c.72.321 1.454.666 2.152.893 5.038 1.634 9.526 1.72 13.018.485.157-.056.739-.243 1.239-.664.66-.521.686-1.172.686-1.642 0-1.236-.596-2.3-8.41-3.778-6.466-1.223-9.94-4.26-9.94-9.716 0-8.656 8.228-13.05 16.523-13.05 8.031 0 12.903 3.213 12.903 8.59v2.785h-.329c-3.304-1.17-6.035-2.14-11.126-2.14-4.674 0-6.188 1.004-6.188 2.367 0 1.502.823 2.133 8.147 3.314 6.52 1.052 10.352 4.562 10.352 10.66 0 7.74-5.97 12.835-15.91 12.835M22.096 35.346c-1.496.815-6.329 1.659-8.46-.107-.776-.643-1.148-1.693-1.148-2.975l.016-23.08c0-6.097-2.632-8.588-8.095-8.588H0v30.037c0 2.592.213 4.604.526 5.942 1.65 7.048 7.994 9.392 12.335 9.392 6.516 0 9.564-3.07 9.564-6.085v-4.536h-.329Z" fill="#334756"/></g></svg>